# xmcd
#
# Track frame offsets:
#	150
#	15212
#	29687
#	47632
#	61515
#	76749
#	91753
#	103404
#	114239
#	124477
#	140404
#	156681
#	174939
#	190551
#	206467
#	218830
#
# Disc length: 3097 seconds
#
# Revision: 0
# Processed by: cddbd v1.5.2PL0 Copyright (c) Steve Scherf et al.
# Submitted via: EasyCDDAExtractor 16.0.6.1
#
DISCID=cd0c1710
DTITLE=Διάφοροι - Τα λαϊκά του χθες και του σήμερα cd 2
DYEAR=2012
DGENRE=ΛαΊκά
TTITLE0=Κανείς εδώ δεν τραγουδά (Γλυκερία)
TTITLE1=Το αγριολούλουδο (Στέλιος Καζαντζίδης)
TTITLE2=Συ μου χάραξες πορεία (Ελένη Τσαλιγοπούλου)
TTITLE3=Γλυκέ μου τύραννε (Πάνος Γαβαλάς)
TTITLE4=Πάρε τα χνάρια μου (Ελένη Βιτάλη)
TTITLE5=Στη σκέψη της τρελής (Γεράσιμος Ανδρεάτος)
TTITLE6=Επεμβαίνεις (Βίκυ Μοσχολιού and Γιώργος Ζαμπέτας)
TTITLE7=Εγώ δεν έχω βγάλει το σχολείο (Γιώργος Μουφλουζέλης)
TTITLE8=Την είδα απόψε λαϊκά (Αγάθωνας Ιακωβίδης)
TTITLE9=Μια γυναίκα δύο άντρες (Μαριώ)
TTITLE10=Άναψε το τσιγάρο (Ελ.Αρβανιτάκη and Στρ.Στρατηγόπουλος)
TTITLE11=Παιδί του δρόμου (Καίτη Ντάλη)
TTITLE12=Σα μαγεμένο το μυαλό μου (Γιάννης Πουλόπουλος)
TTITLE13=Αθήνα σαλονίκη (Μελίνα Κανά)
TTITLE14=Ντόλτσε βίτα (Γλυκειά ζωή)(Σπύρος Ζαγοραίος)
TTITLE15=Ζούγκλα στα βάθη της Ανατολής (Ταμπού)(Μπάμπης Γκολές)
EXTD=
EXTT0=
EXTT1=
EXTT2=
EXTT3=
EXTT4=
EXTT5=
EXTT6=
EXTT7=
EXTT8=
EXTT9=
EXTT10=
EXTT11=
EXTT12=
EXTT13=
EXTT14=
EXTT15=
PLAYORDER=
